<svg width="2285" height="524" viewBox="0 0 2285 524" fill="none" xmlns="http://www.w3.org/2000/svg">
<path d="M760.18 388V142.845H917.233V180.073H804.591V246.629H906.459V283.857H804.591V388H760.18ZM1007.04 391.711C995.39 391.711 984.896 389.636 975.559 385.486C966.302 381.257 958.96 375.032 953.533 366.812C948.187 358.593 945.513 348.458 945.513 336.407C945.513 326.033 947.428 317.454 951.259 310.671C955.09 303.887 960.317 298.461 966.94 294.391C973.564 290.321 981.026 287.249 989.325 285.174C997.704 283.019 1006.36 281.463 1015.3 280.505C1026.07 279.388 1034.81 278.39 1041.52 277.513C1048.22 276.555 1053.09 275.118 1056.12 273.203C1059.23 271.208 1060.79 268.136 1060.79 263.986V263.268C1060.79 254.25 1058.12 247.267 1052.77 242.319C1047.42 237.372 1039.72 234.898 1029.67 234.898C1019.05 234.898 1010.63 237.212 1004.41 241.841C998.263 246.469 994.113 251.936 991.959 258.24L951.498 252.494C954.691 241.322 959.958 231.985 967.299 224.483C974.641 216.902 983.619 211.236 994.233 207.485C1004.85 203.655 1016.58 201.739 1029.43 201.739C1038.28 201.739 1047.1 202.777 1055.88 204.852C1064.66 206.927 1072.68 210.358 1079.94 215.146C1087.2 219.855 1093.03 226.279 1097.42 234.419C1101.89 242.559 1104.12 252.734 1104.12 264.944V388H1062.46V362.742H1061.03C1058.39 367.85 1054.68 372.638 1049.9 377.107C1045.19 381.496 1039.24 385.047 1032.06 387.761C1024.96 390.394 1016.62 391.711 1007.04 391.711ZM1018.29 359.869C1026.99 359.869 1034.53 358.154 1040.92 354.722C1047.3 351.211 1052.21 346.582 1055.64 340.836C1059.15 335.091 1060.91 328.826 1060.91 322.043V300.376C1059.55 301.493 1057.24 302.531 1053.97 303.488C1050.77 304.446 1047.18 305.284 1043.19 306.002C1039.2 306.721 1035.25 307.359 1031.34 307.918C1027.43 308.476 1024.04 308.955 1021.17 309.354C1014.7 310.232 1008.92 311.668 1003.81 313.663C998.702 315.658 994.672 318.452 991.719 322.043C988.766 325.554 987.29 330.103 987.29 335.689C987.29 343.669 990.203 349.694 996.029 353.764C1001.85 357.834 1009.28 359.869 1018.29 359.869ZM1147.69 388V204.134H1189.71V234.778H1191.63C1194.98 224.164 1200.72 215.984 1208.86 210.239C1217.08 204.413 1226.46 201.5 1236.99 201.5C1239.39 201.5 1242.06 201.62 1245.01 201.859C1248.05 202.019 1250.56 202.298 1252.56 202.697V242.559C1250.72 241.92 1247.81 241.362 1243.82 240.883C1239.91 240.324 1236.12 240.045 1232.45 240.045C1224.54 240.045 1217.44 241.761 1211.14 245.192C1204.91 248.544 1200.01 253.213 1196.41 259.198C1192.82 265.183 1191.03 272.086 1191.03 279.907V388H1147.69ZM1353.98 391.591C1335.62 391.591 1319.86 387.561 1306.69 379.501C1293.6 371.441 1283.51 360.308 1276.41 346.103C1269.38 331.819 1265.87 315.379 1265.87 296.785C1265.87 278.111 1269.46 261.632 1276.65 247.347C1283.83 232.982 1293.96 221.81 1307.05 213.83C1320.22 205.77 1335.78 201.739 1353.74 201.739C1368.66 201.739 1381.87 204.493 1393.36 209.999C1404.93 215.426 1414.15 223.127 1421.01 233.102C1427.87 242.998 1431.78 254.569 1432.74 267.816H1391.32C1389.65 258.958 1385.66 251.577 1379.35 245.671C1373.13 239.686 1364.79 236.693 1354.33 236.693C1345.48 236.693 1337.7 239.087 1330.99 243.876C1324.29 248.584 1319.06 255.367 1315.31 264.225C1311.64 273.083 1309.8 283.697 1309.8 296.067C1309.8 308.596 1311.64 319.369 1315.31 328.387C1318.98 337.325 1324.13 344.228 1330.75 349.096C1337.46 353.884 1345.32 356.278 1354.33 356.278C1360.72 356.278 1366.42 355.081 1371.45 352.687C1376.56 350.213 1380.83 346.662 1384.26 342.033C1387.69 337.405 1390.05 331.779 1391.32 325.155H1432.74C1431.7 338.163 1427.87 349.694 1421.25 359.75C1414.63 369.725 1405.61 377.546 1394.2 383.212C1382.78 388.798 1369.38 391.591 1353.98 391.591ZM1521.23 391.711C1509.58 391.711 1499.09 389.636 1489.75 385.486C1480.49 381.257 1473.15 375.032 1467.72 366.812C1462.38 358.593 1459.7 348.458 1459.7 336.407C1459.7 326.033 1461.62 317.454 1465.45 310.671C1469.28 303.887 1474.51 298.461 1481.13 294.391C1487.76 290.321 1495.22 287.249 1503.52 285.174C1511.9 283.019 1520.55 281.463 1529.49 280.505C1540.27 279.388 1549 278.39 1555.71 277.513C1562.41 276.555 1567.28 275.118 1570.31 273.203C1573.42 271.208 1574.98 268.136 1574.98 263.986V263.268C1574.98 254.25 1572.31 247.267 1566.96 242.319C1561.61 237.372 1553.91 234.898 1543.86 234.898C1533.24 234.898 1524.82 237.212 1518.6 241.841C1512.45 246.469 1508.3 251.936 1506.15 258.24L1465.69 252.494C1468.88 241.322 1474.15 231.985 1481.49 224.483C1488.83 216.902 1497.81 211.236 1508.42 207.485C1519.04 203.655 1530.77 201.739 1543.62 201.739C1552.48 201.739 1561.29 202.777 1570.07 204.852C1578.85 206.927 1586.87 210.358 1594.13 215.146C1601.4 219.855 1607.22 226.279 1611.61 234.419C1616.08 242.559 1618.31 252.734 1618.31 264.944V388H1576.66V362.742H1575.22C1572.59 367.85 1568.88 372.638 1564.09 377.107C1559.38 381.496 1553.43 385.047 1546.25 387.761C1539.15 390.394 1530.81 391.711 1521.23 391.711ZM1532.49 359.869C1541.18 359.869 1548.73 358.154 1555.11 354.722C1561.49 351.211 1566.4 346.582 1569.83 340.836C1573.34 335.091 1575.1 328.826 1575.1 322.043V300.376C1573.74 301.493 1571.43 302.531 1568.16 303.488C1564.97 304.446 1561.37 305.284 1557.38 306.002C1553.39 306.721 1549.44 307.359 1545.53 307.918C1541.62 308.476 1538.23 308.955 1535.36 309.354C1528.89 310.232 1523.11 311.668 1518 313.663C1512.89 315.658 1508.86 318.452 1505.91 322.043C1502.96 325.554 1501.48 330.103 1501.48 335.689C1501.48 343.669 1504.39 349.694 1510.22 353.764C1516.05 357.834 1523.47 359.869 1532.49 359.869ZM1807.21 252.734L1767.7 257.043C1766.59 253.053 1764.63 249.302 1761.84 245.791C1759.13 242.279 1755.46 239.446 1750.83 237.292C1746.2 235.137 1740.53 234.06 1733.83 234.06C1724.81 234.06 1717.23 236.015 1711.08 239.925C1705.02 243.836 1702.03 248.903 1702.11 255.128C1702.03 260.475 1703.98 264.824 1707.97 268.176C1712.04 271.527 1718.75 274.281 1728.08 276.435L1759.45 283.139C1776.84 286.889 1789.77 292.835 1798.23 300.975C1806.77 309.115 1811.08 319.768 1811.16 332.936C1811.08 344.507 1807.69 354.722 1800.98 363.58C1794.36 372.359 1785.14 379.222 1773.33 384.169C1761.52 389.117 1747.95 391.591 1732.63 391.591C1710.13 391.591 1692.01 386.883 1678.29 377.466C1664.56 367.969 1656.38 354.762 1653.75 337.844L1696 333.774C1697.92 342.073 1701.99 348.338 1708.21 352.567C1714.44 356.797 1722.54 358.912 1732.51 358.912C1742.81 358.912 1751.07 356.797 1757.29 352.567C1763.6 348.338 1766.75 343.111 1766.75 336.886C1766.75 331.619 1764.71 327.27 1760.64 323.838C1756.65 320.407 1750.43 317.773 1741.97 315.938L1710.61 309.354C1692.97 305.683 1679.92 299.498 1671.46 290.8C1663 282.021 1658.81 270.929 1658.89 257.522C1658.81 246.19 1661.89 236.374 1668.11 228.075C1674.42 219.695 1683.15 213.231 1694.33 208.682C1705.58 204.054 1718.55 201.739 1733.23 201.739C1754.78 201.739 1771.73 206.328 1784.1 215.506C1796.55 224.683 1804.25 237.092 1807.21 252.734ZM1938.7 204.134V237.651H1833V204.134H1938.7ZM1859.1 160.082H1902.43V332.696C1902.43 338.522 1903.31 342.991 1905.07 346.103C1906.9 349.136 1909.3 351.211 1912.25 352.328C1915.2 353.445 1918.47 354.004 1922.06 354.004C1924.78 354.004 1927.25 353.804 1929.49 353.405C1931.8 353.006 1933.56 352.647 1934.75 352.328L1942.05 386.204C1939.74 387.002 1936.43 387.88 1932.12 388.838C1927.89 389.796 1922.7 390.354 1916.56 390.514C1905.7 390.833 1895.93 389.197 1887.23 385.606C1878.53 381.935 1871.63 376.269 1866.52 368.608C1861.49 360.947 1859.02 351.37 1859.1 339.879V160.082ZM2054.37 391.591C2035.93 391.591 2020.01 387.761 2006.61 380.099C1993.28 372.359 1983.02 361.426 1975.84 347.3C1968.66 333.095 1965.07 316.377 1965.07 297.144C1965.07 278.231 1968.66 261.632 1975.84 247.347C1983.1 232.982 1993.24 221.81 2006.25 213.83C2019.25 205.77 2034.54 201.739 2052.09 201.739C2063.43 201.739 2074.12 203.575 2084.17 207.246C2094.31 210.837 2103.25 216.423 2110.99 224.005C2118.81 231.586 2124.95 241.242 2129.42 252.973C2133.89 264.624 2136.13 278.51 2136.13 294.63V307.918H1985.42V278.71H2094.59C2094.51 270.41 2092.71 263.028 2089.2 256.564C2085.69 250.02 2080.78 244.873 2074.48 241.122C2068.25 237.372 2060.99 235.496 2052.69 235.496C2043.83 235.496 2036.05 237.651 2029.35 241.96C2022.65 246.19 2017.42 251.776 2013.67 258.719C2010 265.582 2008.12 273.123 2008.04 281.343V306.84C2008.04 317.534 2010 326.711 2013.91 334.372C2017.82 341.954 2023.28 347.779 2030.31 351.849C2037.33 355.839 2045.55 357.834 2054.97 357.834C2061.27 357.834 2066.98 356.957 2072.08 355.201C2077.19 353.365 2081.62 350.692 2085.37 347.181C2089.12 343.669 2091.96 339.32 2093.87 334.133L2134.33 338.682C2131.78 349.375 2126.91 358.712 2119.73 366.693C2112.62 374.593 2103.53 380.738 2092.43 385.127C2081.34 389.436 2068.65 391.591 2054.37 391.591ZM2172.79 388V204.134H2214.8V234.778H2216.72C2220.07 224.164 2225.81 215.984 2233.95 210.239C2242.17 204.413 2251.55 201.5 2262.09 201.5C2264.48 201.5 2267.15 201.62 2270.11 201.859C2273.14 202.019 2275.65 202.298 2277.65 202.697V242.559C2275.81 241.92 2272.9 241.362 2268.91 240.883C2265 240.324 2261.21 240.045 2257.54 240.045C2249.64 240.045 2242.53 241.761 2236.23 245.192C2230 248.544 2225.1 253.213 2221.51 259.198C2217.91 265.183 2216.12 272.086 2216.12 279.907V388H2172.79Z" fill="#855DCD"/>
<rect width="524" height="524" rx="113" fill="#855DCD"/>
<path fill-rule="evenodd" clip-rule="evenodd" d="M209.232 408.952H104.781V397.535C104.781 392.28 109.041 388.02 114.296 388.02H116.198V376.603C116.198 371.348 120.458 367.088 125.713 367.088V197.728H115.247L102.878 155.864H158.063V114H365.481V155.864H420.665L408.296 197.728H397.83V367.088C403.085 367.088 407.345 371.348 407.345 376.603V388.02H409.248C414.502 388.02 418.763 392.28 418.763 397.535V408.952H314.428V397.535C314.428 392.28 318.688 388.02 323.943 388.02H325.846V376.603C325.846 371.457 329.93 367.265 335.034 367.094V273.845C331.669 236.505 299.988 207.243 261.772 207.243C223.555 207.243 191.875 236.505 188.509 273.845V367.09C193.667 367.202 197.815 371.418 197.815 376.603V382.311V388.02H199.718C204.972 388.02 209.232 392.28 209.232 397.535V408.952Z" fill="white"/>
</svg>
