<!-- public/appcon-logo.svg -->
<svg viewBox="0 0 536 543" xmlns="http://www.w3.org/2000/svg">
  <path d="M267 61L267 244L187 108.5L267 61Z" />
  <path d="M267 61L267 244L347 108.5L267 61Z" />
  <path d="M267 474V291L347 426.5L267 474Z" />
  <path d="M267 474V291L187 426.5L267 474Z" />
  <path d="M473.5 267.5L290.5 267.5L426 187.5L473.5 267.5Z" />
  <path d="M473.5 267.5L290.5 267.5L426 347.5L473.5 267.5Z" />
  <path d="M60.5 267.5L243.5 267.5L108 347.5L60.5 267.5Z" />
  <path d="M60.5 267.5L243.5 267.5L108 187.5L60.5 267.5Z" />
  <path d="M87.9126 448.378L0 424.87L138.521 401.476L87.9126 448.378Z" />
  <path d="M88.2789 448.038L105.727 538.215L138.52 401.476L88.2789 448.038Z" />
  <path d="M447.628 452.378L535.541 428.87L397.02 405.476L447.628 452.378Z" />
  <path d="M447.262 452.038L429.814 542.215L397.021 405.476L447.262 452.038Z" />
  <path d="M87.9126 90.1767L0 113.685L138.521 137.079L87.9126 90.1767Z" />
  <path d="M88.2789 90.5165L105.727 0.339844L138.52 137.079L88.2789 90.5165Z" />
  <path d="M447.628 90.1767L535.541 113.685L397.02 137.079L447.628 90.1767Z" />
  <path d="M447.262 90.5165L429.814 0.339844L397.021 137.079L447.262 90.5165Z" />
</svg>
